<svg width="20" height="20" viewBox="0 0 20 20" fill="none" xmlns="http://www.w3.org/2000/svg">
<path d="M10 9.99951C10.2156 9.99951 10.3906 9.82449 10.3906 9.60889C10.3906 9.39328 10.2156 9.21826 10 9.21826C9.78439 9.21826 9.60938 9.39328 9.60938 9.60889C9.60938 9.82449 9.78439 9.99951 10 9.99951Z" fill="white"/>
<path d="M18.4375 6.87452H16.1274L12.574 1.98576C12.2548 1.43873 11.5516 1.24403 10.9932 1.55332C10.4271 1.86781 10.2235 2.58085 10.5382 3.1471C10.5472 3.16313 10.5571 3.17854 10.5682 3.19319L13.3554 6.87452H6.64458L9.43175 3.19319C9.44273 3.17854 9.4528 3.16313 9.46181 3.1471C9.77568 2.58222 9.57442 1.86857 9.00633 1.55302C8.44908 1.24433 7.74596 1.43888 7.42613 1.98545L3.87252 6.87452H1.5625C0.700988 6.87452 0 7.57551 0 8.43702C0 9.1165 0.440978 9.70808 1.06216 9.91743C1.12839 9.9687 1.21109 9.99952 1.30111 9.99952C1.31912 9.99952 1.33606 10.0006 1.35376 10.003C1.52191 10.0256 1.65512 10.1532 1.68564 10.3201L3.01452 17.6312C3.11599 18.1886 3.60092 18.5933 4.16763 18.5933H15.8323C16.399 18.5933 16.884 18.1886 16.9854 17.6311L18.3143 10.3203C18.3448 10.1532 18.4782 10.0256 18.647 10.003C18.6641 10.0006 18.681 9.99952 18.6988 9.99952C18.7895 9.99952 18.8728 9.9684 18.939 9.91652C19.5607 9.70579 20 9.11528 20 8.43702C20 7.57551 19.299 6.87452 18.4375 6.87452ZM11.2105 2.74717C11.1212 2.56239 11.1905 2.33732 11.372 2.23661C11.5611 2.13178 11.7994 2.19938 11.9037 2.38722C11.9113 2.40126 11.92 2.41468 11.9293 2.4275L15.1616 6.87452H14.3351L11.2105 2.74717ZM8.07066 2.42765C8.07997 2.41484 8.08836 2.40156 8.09615 2.38783C8.20067 2.19984 8.43916 2.13209 8.62746 2.23631C8.80934 2.33732 8.87892 2.56208 8.7895 2.74717L5.66481 6.87452H4.8384L8.07066 2.42765ZM18.4375 9.21827H11.5625C11.3467 9.21827 11.1719 9.39314 11.1719 9.6089C11.1719 9.82466 11.3467 9.99556 11.5625 9.99556H17.5937C17.5732 10.0538 17.557 10.1143 17.5457 10.1765L16.2167 17.4913C16.183 17.6771 16.0212 17.812 15.8323 17.812H4.16763C3.97857 17.812 3.81698 17.6771 3.7831 17.4914L2.45422 10.1803C2.44293 10.1181 2.42675 10.0577 2.40631 9.99952H8.43748C8.65324 9.99952 8.82811 9.82466 8.82811 9.6089C8.82811 9.39314 8.65324 9.21827 8.43748 9.21827H1.5625C1.12808 9.21827 0.781249 8.86427 0.781249 8.43702C0.781249 8.00627 1.13174 7.65577 1.5625 7.65577H18.4375C18.8682 7.65577 19.2187 8.00627 19.2187 8.43702C19.2187 8.87083 18.8638 9.21827 18.4375 9.21827Z" fill="white"/>
<path d="M10 11.1714C9.35379 11.1714 8.82812 11.6971 8.82812 12.3433V15.4683C8.82812 16.1145 9.35379 16.6401 10 16.6401C10.6462 16.6401 11.1719 16.1145 11.1719 15.4683V12.3433C11.1719 11.6958 10.6474 11.1714 10 11.1714ZM10.3906 15.4683C10.3906 15.6837 10.2155 15.8589 10 15.8589C9.78454 15.8589 9.60937 15.6837 9.60937 15.4683V12.3433C9.60937 12.1278 9.78454 11.9526 10 11.9526C10.2156 11.9526 10.3906 12.1277 10.3906 12.3433V15.4683Z" fill="white"/>
<path d="M13.9062 16.6401C14.5525 16.6401 15.0781 16.1145 15.0781 15.4683V12.3433C15.0781 11.6958 14.5537 11.1714 13.9062 11.1714C13.26 11.1714 12.7344 11.6971 12.7344 12.3433V15.4683C12.7344 16.1145 13.26 16.6401 13.9062 16.6401ZM13.5156 12.3433C13.5156 12.1278 13.6908 11.9526 13.9062 11.9526C14.1219 11.9526 14.2969 12.1277 14.2969 12.3433V15.4683C14.2969 15.6837 14.1217 15.8589 13.9062 15.8589C13.6908 15.8589 13.5156 15.6837 13.5156 15.4683V12.3433Z" fill="white"/>
<path d="M6.09375 11.1714C5.44754 11.1714 4.92188 11.6971 4.92188 12.3433V15.4683C4.92188 16.1145 5.44754 16.6401 6.09375 16.6401C6.73996 16.6401 7.26562 16.1145 7.26562 15.4683V12.3433C7.26562 11.6958 6.74118 11.1714 6.09375 11.1714ZM6.48437 15.4683C6.48437 15.6837 6.3092 15.8589 6.09375 15.8589C5.87829 15.8589 5.70312 15.6837 5.70312 15.4683V12.3433C5.70312 12.1278 5.87829 11.9526 6.09375 11.9526C6.30935 11.9526 6.48437 12.1275 6.48437 12.3433V15.4683Z" fill="white"/>
</svg>
